<?xml version="1.0" encoding="utf-8"?>
<!-- Generator: Adobe Illustrator 25.2.3, SVG Export Plug-In . SVG Version: 6.00 Build 0)  -->
<svg version="1.1" id="Layer_1" xmlns="http://www.w3.org/2000/svg" xmlns:xlink="http://www.w3.org/1999/xlink" x="0px" y="0px"
	 viewBox="0 0 904.29 289.65" style="enable-background:new 0 0 904.29 289.65;" xml:space="preserve">
<style type="text/css">
	.st0{fill:#010101;}
	.st1{fill:#ED2224;}
	.st2{fill:#FFFFFF;}
</style>
<g>
	<g>
		<g>
			<g>
				<path d="M276.64,146.18c-8.28-10.35-12.42-22.15-12.42-35.19c0-15.53,5.59-28.98,16.56-39.95
					c10.97-10.97,24.43-16.56,39.95-16.56h4.35V84.9c-1.45-0.21-2.9-0.21-4.35-0.21c-17.6,0-26.29,8.69-26.29,26.29
					c0,1.45,0.21,3.11,0.41,4.76h86.33V54.47h33.54v91.71H276.64z"/>
				<path d="M460.06,115.75h15.11v30.43h-45.13V6.44h30.02V115.75z"/>
				<path d="M698.45,146.18c-11.39,14.28-26.29,21.32-44.51,21.32c-18.22,0-32.92-7.04-44.3-21.32H456.66v-30.43h140.97
					c-0.21-1.66-0.21-3.31-0.21-4.76c0-15.53,5.59-28.98,16.56-39.95c10.97-10.97,24.43-16.56,39.95-16.56
					c15.73,0,29.19,5.59,40.16,16.56c10.97,10.97,16.56,24.43,16.56,39.95c0,1.45,0,3.11-0.21,4.76h14.9v30.43H698.45z
					 M653.95,132.15c14.05,0,21.16-7.11,21.16-21.16S668,89.82,653.95,89.82c-14.05,0-20.98,7.11-20.98,21.16
					S639.91,132.15,653.95,132.15z"/>
				<path d="M736.4,115.75V6.44h30.22v109.3h14.9v30.43H721.5v-30.43H736.4z"/>
				<path d="M781.53,115.75H872c0.21-1.45,0.41-3.11,0.41-4.55c0-16.35-8.28-24.63-24.63-24.63l-51.34-0.21V54.26h0.62l89.64-53.2
					l16.77,32.92L860.4,56.13c29.4,6.62,44.3,25.05,44.09,55.07l-0.21,34.99H781.53V115.75z"/>
			</g>
			<path d="M398.18,30.17c-2.58,2.58-5.92,3.87-10.01,3.87c-4.09,0-7.42-1.29-10.01-3.87c-2.58-2.58-3.87-5.86-3.87-9.84
				c0-3.98,1.29-7.29,3.87-9.92c2.58-2.64,5.92-3.95,10.01-3.95c4.09,0,7.42,1.32,10.01,3.95c2.58,2.64,3.87,5.95,3.87,9.92
				C402.05,24.3,400.76,27.58,398.18,30.17z"/>
			<path d="M360.25,30.17c-2.58,2.58-5.92,3.87-10.01,3.87c-4.09,0-7.42-1.29-10.01-3.87c-2.58-2.58-3.87-5.86-3.87-9.84
				c0-3.98,1.29-7.29,3.87-9.92c2.58-2.64,5.92-3.95,10.01-3.95c4.09,0,7.42,1.32,10.01,3.95c2.58,2.64,3.87,5.95,3.87,9.92
				C364.13,24.3,362.83,27.58,360.25,30.17z"/>
		</g>
	</g>
	<rect x="481.15" y="186.11" class="st1" width="423.35" height="103.55"/>
	<g>
		<path class="st2" d="M545.2,223.75h11.94v47.77H545.2v-5.84c-3.16,4.62-8.21,6.93-15.13,6.93c-6.75,0-12.1-2.37-16.05-7.11
			c-3.95-4.74-5.93-10.7-5.93-17.87c0-7.17,1.97-13.13,5.93-17.87c3.95-4.74,9.3-7.11,16.05-7.11c6.93,0,11.97,2.31,15.13,6.93
			V223.75z M541.33,257.39c2.16-2.55,3.24-5.8,3.24-9.76c0-3.95-1.08-7.2-3.24-9.76c-2.16-2.55-5-3.83-8.52-3.83
			c-3.53,0-6.37,1.28-8.52,3.83c-2.16,2.55-3.24,5.8-3.24,9.76c0,3.95,1.08,7.2,3.24,9.76c2.16,2.55,5,3.83,8.52,3.83
			C536.33,261.22,539.17,259.94,541.33,257.39z"/>
		<path class="st2" d="M577.26,271.52h-12.95v-68.38h12.95V271.52z"/>
		<path class="st2" d="M627.28,244.35v27.17h-12.95v-28.35c0-6.26-2.55-9.39-7.66-9.39c-2.98,0-5.27,0.91-6.88,2.73
			c-1.61,1.82-2.42,4.35-2.42,7.57v27.44h-12.95v-47.77h11.94v5.84c2.49-4.62,7.08-6.93,13.77-6.93c6.32,0,10.94,2.25,13.86,6.75
			c4.07-4.5,9.36-6.75,15.86-6.75c5.59,0,9.88,1.73,12.85,5.2c2.98,3.47,4.47,8.08,4.47,13.86v29.81h-12.95v-28.35
			c0-6.26-2.55-9.39-7.66-9.39c-3.04,0-5.35,0.93-6.93,2.78C628.07,238.41,627.28,241.01,627.28,244.35z"/>
		<path class="st2" d="M709.82,251.37h-34.64c0.42,3.28,1.64,5.79,3.65,7.52s4.65,2.6,7.93,2.6c2.07,0,3.93-0.44,5.61-1.32
			c1.67-0.88,2.87-2.17,3.6-3.88H709c-1.4,4.86-4.15,8.8-8.25,11.81c-4.1,3.01-8.89,4.51-14.36,4.51c-7.05,0-12.83-2.34-17.32-7.02
			c-4.5-4.68-6.75-10.7-6.75-18.05c0-7.11,2.25-13.04,6.75-17.78c4.5-4.74,10.24-7.11,17.23-7.11c6.99,0,12.69,2.36,17.09,7.07
			c4.41,4.71,6.61,10.65,6.61,17.82L709.82,251.37z M686.21,233.05c-2.92,0-5.32,0.81-7.2,2.42c-1.88,1.61-3.1,3.81-3.65,6.61h21.7
			c-0.49-2.74-1.67-4.92-3.56-6.56C691.62,233.87,689.19,233.05,686.21,233.05z"/>
		<path class="st2" d="M729.12,223.75v5.84c2.49-4.62,7.23-6.93,14.22-6.93c5.65,0,10,1.72,13.04,5.15
			c3.04,3.43,4.56,8.07,4.56,13.91v29.81h-12.95v-28.35c0-6.26-2.71-9.39-8.12-9.39c-3.1,0-5.5,0.93-7.2,2.78
			c-1.7,1.85-2.55,4.39-2.55,7.61v27.35h-12.95v-47.77H729.12z"/>
		<path class="st2" d="M836.47,265.37c-4.62,4.83-10.67,7.25-18.14,7.25c-7.48,0-13.53-2.42-18.14-7.25
			c-4.62-4.83-6.93-10.74-6.93-17.73c0-6.99,2.31-12.9,6.93-17.73c4.62-4.83,10.67-7.25,18.14-7.25c7.48,0,13.52,2.42,18.14,7.25
			c4.62,4.83,6.93,10.74,6.93,17.73C843.4,254.63,841.09,260.54,836.47,265.37z M809.62,237.7c-2.28,2.43-3.42,5.74-3.42,9.94
			c0,4.19,1.14,7.51,3.42,9.94c2.28,2.43,5.18,3.65,8.71,3.65c3.52,0,6.43-1.22,8.71-3.65c2.28-2.43,3.42-5.74,3.42-9.94
			c0-4.19-1.14-7.51-3.42-9.94c-2.28-2.43-5.18-3.65-8.71-3.65C814.8,234.05,811.9,235.27,809.62,237.7z"/>
		<path class="st2" d="M877.55,223.38v12.13c-0.91-0.18-1.76-0.27-2.55-0.27c-3.83,0-6.7,1-8.62,3.01
			c-1.91,2.01-2.87,5.17-2.87,9.48v23.8h-12.95v-47.77h11.94v6.2c2.73-4.44,7.23-6.66,13.49-6.66L877.55,223.38z"/>
		<path class="st2" d="M784.74,262.18c-3.53,0-3.69-1.98-3.69-5.69l0.06-22.53h6.96v-10.21h-7.02V211.9H768.1v11.85l0.01,10.21
			v23.75c0,9.3,3.76,13.95,13,13.95c2.37,0,5.6-0.18,7-0.55v-9.39C787.08,262.03,785.95,262.18,784.74,262.18z"/>
	</g>
</g>
<g>
	<path d="M73.98,90.49l35.6,0l0,27.39l-16.51,0c-0.05,3.33,1.35,5.72,4.11,6.68c3.14,1.1,6.52,1.53,9.81,2.21
		c0.84,0.17,1.72,0.16,2.67,0.24v17.16c-10.84-0.3-20.96-2.14-29.06-9.87c-4.47-4.26-6.67-9.65-6.75-15.79
		c-0.11-8.94-0.04-17.87-0.03-26.81C73.81,91.38,73.89,91.07,73.98,90.49z"/>
	<path d="M123.16,90.49l35.6,0l0,27.39l-16.51,0c-0.05,3.33,1.35,5.72,4.11,6.68c3.14,1.1,6.52,1.53,9.81,2.21
		c0.84,0.17,1.72,0.16,2.67,0.24l0,17.16c-10.84-0.3-20.96-2.14-29.06-9.87c-4.47-4.26-6.67-9.65-6.75-15.79
		c-0.11-8.94-0.04-17.87-0.03-26.81C122.99,91.38,123.07,91.07,123.16,90.49z"/>
	<g>
		<g>
			<path class="st1" d="M222.16,71.68c-5.83-13.77-14.16-26.13-24.78-36.75c-10.61-10.62-22.98-18.95-36.75-24.77
				c-14.26-6.03-29.41-9.09-45.01-9.09c-15.6,0-30.75,3.06-45.01,9.09c-13.77,5.82-26.13,14.16-36.75,24.77
				C23.25,45.54,14.91,57.91,9.09,71.68C3.06,85.94,0,101.08,0,116.68c0,15.61,3.06,30.75,9.09,45.01
				c5.82,13.77,14.16,26.13,24.77,36.75c10.62,10.61,22.98,18.95,36.75,24.77c3.86,1.64,7.79,3.05,11.78,4.24l4.11,62.19
				l29.58-42.01l30-42.93c-9.67,3.34-19.93,5.08-30.46,5.08c-12.14,0-23.92-2.31-34.85-6.72c-11.46-4.62-21.98-11.55-30.98-20.55
				c-17.58-17.58-27.27-40.96-27.27-65.83c0-24.87,9.68-48.25,27.27-65.83s40.96-27.27,65.83-27.27c24.87,0,48.25,9.68,65.83,27.27
				s27.27,40.96,27.27,65.83c0,24.87-9.68,48.25-27.27,65.83c-5.5,5.5-11.57,10.22-18.07,14.12l-23.09,33.04
				c6.94-1.51,13.73-3.66,20.34-6.46c13.77-5.83,26.13-14.16,36.75-24.77c10.61-10.62,18.95-22.98,24.77-36.75
				c6.03-14.26,9.09-29.41,9.09-45.01C231.25,101.08,228.19,85.94,222.16,71.68z"/>
		</g>
	</g>
</g>
</svg>
